<svg width="1000" height="1000" viewBox="0 0 1000 1000" fill="none" xmlns="http://www.w3.org/2000/svg">
<g clip-path="url(#clip0_2_18)">
<path d="M1000 0H0V1000H1000V0Z" fill="black"/>
<path d="M1000 0H0V1000H1000V0Z" fill="#1BC47D" fill-opacity="0.123094"/>
<mask id="mask0_2_18" style="mask-type:luminance" maskUnits="userSpaceOnUse" x="0" y="0" width="1000" height="1000">
<path d="M1000 0H0V1000H1000V0Z" fill="white"/>
</mask>
<g mask="url(#mask0_2_18)">
<g filter="url(#filter0_f_2_18)">
<path d="M827.5 308.125H262.5V960.625H827.5V308.125Z" fill="#EE46D3"/>
<path d="M730.625 230.625H191.875V863.75H730.625V230.625Z" fill="#907CFF"/>
</g>
</g>
<g style="mix-blend-mode:overlay">
<path d="M1000 0H0V1000H1000V0Z" fill="#808080"/>
</g>
</g>
<path d="M407.155 530.8C416.755 549.6 419.955 568.8 419.955 585.2C419.955 616.8 408.755 640 408.755 640H301.955C313.555 627.6 329.155 595.6 329.155 560.4V556.8C327.555 494.8 246.755 430.8 234.755 419.2C217.555 401.6 179.555 354.8 170.755 316.4V319.2C170.755 367.2 199.955 432.4 237.555 486C261.155 520 268.355 550 268.355 574.4C268.355 615.2 247.955 640 247.955 640H145.555C145.555 640 183.155 586.4 183.155 511.2C183.155 500 182.355 488 180.355 476C178.755 464.8 145.555 369.6 145.555 296.4H307.155C349.955 296.4 383.955 333.6 383.955 370.8C383.955 383.6 379.955 396 371.155 407.2C357.555 424.4 337.555 430 316.755 430C289.955 430 262.355 420 247.955 412C281.555 440.8 289.555 442 314.755 453.6C362.755 475.2 393.955 504.4 406.755 530.4C407.155 530.4 407.155 530.8 407.155 530.8ZM249.155 308.4H184.355C188.355 323.2 205.155 368.4 235.555 390.8C243.955 397.2 253.955 400.8 263.555 400.8C268.355 400.8 273.155 400 277.555 398.4C294.355 392.4 303.555 378.8 304.355 361.2V360C304.355 329.2 276.355 308.4 249.155 308.4ZM636.83 505.6C641.63 515.2 647.63 534.8 647.63 556.4C647.63 596.8 626.03 643.6 530.43 643.6C429.23 643.6 405.23 601.2 405.23 559.6C405.23 540.4 410.03 521.6 415.23 506.8C420.43 491.6 422.03 479.6 422.03 469.6C422.03 436.8 402.03 423.6 402.03 382.8C402.03 377.2 402.43 371.2 403.23 364.4C412.03 295.6 521.63 294.4 528.83 294.4H529.23C604.03 294.4 640.03 331.6 645.63 360.4C646.83 365.6 647.23 370.8 647.23 375.6C647.23 408 626.43 431.6 626.43 464.8C626.43 476.8 629.23 490 636.83 505.6ZM556.83 628.8C573.23 622.4 592.83 603.2 592.83 578.8C592.83 568.8 589.63 558 581.63 546.8C556.03 510.8 539.63 487.2 539.63 457.6C539.63 434.4 549.63 407.6 572.83 368.8C572.83 368.8 577.63 359.2 577.63 347.2C577.63 335.6 573.23 321.6 555.23 312.4C545.63 307.6 534.03 305.2 522.43 305.2C512.43 305.2 502.43 306.8 494.03 310C480.83 315.2 462.43 327.2 462.43 346.4C462.43 352 464.03 358.4 468.03 365.2C489.63 403.6 505.23 433.2 505.23 464C505.23 488.4 495.63 514 472.43 545.6C463.63 557.6 460.03 568.8 460.03 578.8C460.03 602 479.23 619.6 494.83 626.8C504.43 631.2 516.03 633.6 528.03 633.6C538.03 633.6 548.03 632 556.83 628.8ZM862.623 377.6C857.823 394.8 855.823 410.8 855.823 425.2C855.823 460.4 866.223 485.2 866.223 485.2H802.623C769.823 485.2 751.423 462.4 751.423 436.4C751.423 415.2 763.423 392 790.623 376.8C799.823 370.4 812.223 363.6 823.023 348C827.023 342 829.823 335.6 829.823 329.6C829.823 318.8 820.623 310 795.023 310C777.823 310 701.423 330 685.023 394.8C681.823 407.2 679.823 421.6 679.823 436C679.823 459.6 685.423 484 700.623 503.6C711.423 517.6 735.423 530.4 755.823 534.8C776.623 539.2 799.423 541.6 815.023 542.4C843.423 542.4 866.223 562.8 866.223 589.6V641.6H790.223C764.623 641.6 721.023 631.6 699.823 619.2C639.423 584 621.023 532.8 621.023 471.6C621.023 399.6 685.023 294.8 802.223 294.8H807.423C826.223 294.8 839.423 301.6 848.223 310C860.223 321.2 866.623 337.2 866.623 353.2C866.623 357.2 866.223 361.2 865.423 364.8C865.023 368.8 863.823 373.2 862.623 377.6Z" fill="white"/>
<defs>
<filter id="filter0_f_2_18" x="-433.125" y="-394.375" width="1885.62" height="1980" filterUnits="userSpaceOnUse" color-interpolation-filters="sRGB">
<feFlood flood-opacity="0" result="BackgroundImageFix"/>
<feBlend mode="normal" in="SourceGraphic" in2="BackgroundImageFix" result="shape"/>
<feGaussianBlur stdDeviation="312.5" result="effect1_foregroundBlur_2_18"/>
</filter>
<clipPath id="clip0_2_18">
<rect width="1000" height="1000" fill="white"/>
</clipPath>
</defs>
</svg>
